<svg width="800" height="600" xmlns="http://www.w3.org/2000/svg">
  <defs>
    <linearGradient id="mountainGrad" x1="0%" y1="0%" x2="100%" y2="100%">
      <stop offset="0%" style="stop-color:#2d5016;stop-opacity:1" />
      <stop offset="100%" style="stop-color:#4a7c59;stop-opacity:1" />
    </linearGradient>
  </defs>
  <rect width="100%" height="100%" fill="url(#mountainGrad)"/>
  <!-- Montañas de fondo -->
  <polygon points="0,400 200,200 400,300 600,150 800,250 800,600 0,600" fill="#1a3b0f" opacity="0.8"/>
  <polygon points="0,450 150,250 350,350 550,200 750,300 800,350 800,600 0,600" fill="#0f2508" opacity="0.6"/>
  <!-- Cafetales -->
  <rect x="50" y="350" width="700" height="200" fill="#2d5016" opacity="0.3"/>
  <circle cx="100" cy="400" r="15" fill="#4a7c59"/>
  <circle cx="200" cy="380" r="12" fill="#4a7c59"/>
  <circle cx="300" cy="420" r="18" fill="#4a7c59"/>
  <circle cx="450" cy="390" r="14" fill="#4a7c59"/>
  <circle cx="600" cy="410" r="16" fill="#4a7c59"/>
  <circle cx="720" cy="385" r="13" fill="#4a7c59"/>
  <!-- Texto -->
  <text x="400" y="100" font-family="serif" font-size="32" font-weight="bold" fill="#d4a574" text-anchor="middle">Montañas de Togüí</text>
  <text x="400" y="140" font-family="sans-serif" font-size="16" fill="#f5f5dc" text-anchor="middle">Boyacá, Colombia</text>
</svg>